<?xml version="1.0" encoding="UTF-8"?>
<svg width="303px" height="126px" viewBox="0 0 303 126" version="1.1" xmlns="http://www.w3.org/2000/svg" xmlns:xlink="http://www.w3.org/1999/xlink">
    <!-- Generator: Sketch 42 (36781) - http://www.bohemiancoding.com/sketch -->
    <title>Bus</title>
    <desc>Created with Sketch.</desc>
    <defs>
        <polygon id="path-1" points="302.749156 116.777607 302.749156 9.19502069 6.20901639e-05 9.19502069 6.20901639e-05 116.777607 302.749156 116.777607"></polygon>
    </defs>
    <g id="Car-Health" stroke="none" stroke-width="1" fill="none" fill-rule="evenodd">
        <g id="Petron-Music" transform="translate(-55.000000, -206.000000)">
            <g id="Bus" transform="translate(55.000000, 206.000000)">
                <path d="M26.1277273,12.4448276 C28.2242016,11.8998621 30.3203656,11.3548966 32.41684,10.809931 C32.3814486,10.6808276 32.3463676,10.5520345 32.3112867,10.422931 C30.1263338,10.6994483 27.8448307,10.6212414 26.1277273,12.4448276 L26.1277273,12.4448276 Z M25.9768482,113.529414 C27.8019885,115.452621 30.2163645,115.266724 32.4758256,115.633862 C32.5099752,115.506931 32.5444352,115.38 32.5785848,115.253069 C30.377799,114.67831 28.1773236,114.103862 25.9768482,113.529414 L25.9768482,113.529414 Z M70.8726934,125.184724 C70.1276115,121.534759 69.404882,117.992793 68.6809107,114.44369 C66.8023727,114.910448 66.242009,115.338724 66.4701904,116.620448 C66.9042006,119.059448 67.504923,121.475483 68.1692877,123.863897 C68.489052,125.013724 69.4141955,125.509966 70.8726934,125.184724 L70.8726934,125.184724 Z M68.7063676,11.5873448 C69.4322016,7.94389655 70.1387877,4.39634483 70.8497201,0.826758621 C69.1832201,0.689275862 68.6691135,0.790758621 68.2630439,2.04362069 C67.5446607,4.25886207 66.9715684,6.5367931 66.5471822,8.82744828 C66.2056863,10.6718276 66.5881617,11.0389655 68.7063676,11.5873448 L68.7063676,11.5873448 Z M8.7049168,61.5364138 C8.29884713,60.5768276 8.5540377,55.2056897 8.5540377,55.2056897 C8.5540377,52.9497931 10.8535469,37.4977241 10.8535469,37.4977241 C9.06503975,37.2848276 6.48550389,39.7961379 6.48550389,39.7961379 C6.19895779,40.3277586 5.91365348,40.8739655 5.79350902,41.4543103 C4.27850902,48.7678966 4.35270676,56.2096552 4.24622213,63.612931 C4.17233484,68.7578276 4.65725902,73.9129655 4.95373955,79.0600345 C5.09406332,81.4968621 5.55756639,85.3215517 6.48953975,86.1684828 C7.42151311,87.0154138 9.71791783,89.2511379 11.4070807,89.7706552 C10.5126719,86.7910345 8.51150594,69.2956552 8.46897418,67.5077586 C8.42613197,65.7201724 9.01257357,64.2482069 9.01257357,64.2482069 L8.7049168,61.5364138 Z M73.3016607,110.498276 C67.8790162,111.169241 62.770548,112.223483 57.9545244,114.444931 C59.1193359,114.552 60.2683143,114.568448 61.4163615,114.548586 C63.6987959,114.509483 66.0253143,115.069655 68.2422436,114.037448 C68.4455889,113.942483 68.8057119,114.031862 69.0276842,114.154448 C70.7811105,115.123034 71.9400234,114.728586 72.5286381,112.926724 C72.7801033,112.15769 73.0200818,111.384621 73.3016607,110.498276 L73.3016607,110.498276 Z M71.9201545,11.2096552 C69.6119527,11.9783793 67.3304496,11.5777241 65.0343553,11.4473793 C62.6153225,11.3102069 60.1826299,11.4166552 57.7561463,11.4166552 C62.6988338,13.7057586 67.8563533,14.9257241 73.299798,15.4675862 C72.8474711,14.0713448 72.4473,12.8364828 71.9201545,11.2096552 L71.9201545,11.2096552 Z M10.1581371,92.6345172 C10.246926,92.9516897 10.2981504,93.2812759 10.4279189,93.5764138 C11.8013533,96.6972414 13.040673,99.8878966 14.6047242,102.910655 C16.8157549,107.183483 19.8364414,110.750276 24.4640213,112.633138 C26.0175172,113.26531 27.6020582,113.606069 29.3576576,113.177793 C28.9562447,112.727172 28.4967775,112.377414 27.9801873,112.234345 C25.7896463,111.628241 23.8142477,110.60069 22.3762395,108.858414 C18.8113328,104.539034 15.7943717,99.8692759 13.9074516,94.5487241 C13.1397068,92.3837586 12.5771699,92.0687586 10.1581371,92.6345172 L10.1581371,92.6345172 Z M9.81384713,33.4573448 C12.4449178,33.8477586 13.1589547,33.6215172 13.6538133,32.0440345 C15.1175889,27.3776897 17.9060582,23.4465517 20.511051,19.4126897 C22.3548184,16.5568966 24.8688492,14.5759655 28.215509,13.7119655 C28.6532447,13.599 29.0186453,13.2067241 29.4175746,12.9435517 C27.3509035,12.392069 25.6331791,12.8582069 23.9340818,13.6086207 C20.1568266,15.2767241 17.3953666,18.0853448 15.4839209,21.609 C13.4333932,25.3886897 11.7507498,29.3676207 9.81384713,33.4573448 L9.81384713,33.4573448 Z M53.1903461,110.552586 C50.6462016,112.674414 49.2622119,113.222793 46.1431125,113.323655 C44.8904434,113.36431 43.6331176,113.394724 42.3826217,113.335759 C38.2502109,113.140552 34.1199732,112.902517 29.9223676,112.677207 C29.850343,113.174379 29.7947723,113.559828 29.7227477,114.05731 C31.7655141,114.681103 33.6921719,115.343069 35.661051,115.836828 C36.5296924,116.054379 37.4840182,115.965621 38.3989168,115.956 C46.827967,115.869414 55.2570172,115.771655 63.6860674,115.662414 C63.903383,115.659621 64.118215,115.486759 64.3342887,115.393034 C64.3181453,115.258966 64.3016914,115.124897 64.2852375,114.990517 L56.7661186,114.990517 C56.7179988,114.77669 56.6698789,114.562862 56.6214486,114.348724 C58.1091289,113.791345 59.5964988,113.233966 61.0841791,112.676586 C58.2258584,112.714138 55.5814383,112.215103 53.1903461,110.552586 L53.1903461,110.552586 Z M53.1294977,15.5082414 C55.4734014,13.8277241 58.1038512,13.3547586 61.1897324,13.5307241 C59.6179199,12.4522759 57.7881227,12.6543103 56.7086852,11.4315517 C56.7397303,11.25 56.7710859,11.0684483 56.8021309,10.8865862 L64.2995182,10.8865862 C64.2948615,10.7435172 64.2898943,10.6004483 64.2852375,10.4576897 C62.0655141,10.3053103 59.847343,10.0498966 57.6263779,10.0216552 C52.4707211,9.95648276 47.3135121,9.95989655 42.1575449,10.0135862 C37.8776699,10.0582759 33.4975193,9.64086207 29.7370285,12.320069 C29.5519998,13.4925517 30.4436145,13.3032414 31.2247088,13.2687931 C35.9854721,13.059931 40.7446832,12.752069 45.5073092,12.6760345 C48.3327221,12.6310345 51.1066002,13.1080345 53.1294977,15.5082414 L53.1294977,15.5082414 Z M69.0360664,115.506621 L128.308268,115.506621 C128.594504,112.386724 128.883534,109.241069 129.184671,105.960724 L125.540289,105.960724 C124.548398,107.781828 123.60587,109.430379 122.743127,111.119276 C121.755583,113.052724 120.283735,113.787931 118.070532,113.755345 C104.760884,113.559517 91.4496842,113.478207 78.1387949,113.364 C76.3654998,113.348483 74.5918943,113.361828 72.7745152,113.361828 C72.6282928,115.93831 70.3955305,114.487138 69.0360664,115.506621 L69.0360664,115.506621 Z M69.104676,10.4440345 C69.3921535,10.7680345 69.4169895,10.8226552 69.4570377,10.8375517 C70.6559988,11.286 72.4743092,10.4561379 72.9157703,12.5146552 C72.9340869,12.5996897 73.3572314,12.6322759 73.5916217,12.6313448 C80.0564496,12.6040345 86.5212775,12.5798276 92.9857949,12.5329655 C101.715361,12.4699655 110.444928,12.3753103 119.174805,12.3424138 C119.850036,12.339931 120.753758,12.5103103 121.163553,12.9562759 C123.047679,15.0061034 124.471717,17.3625517 125.249396,20.0271724 L129.184981,20.0271724 C128.879498,16.7257241 128.58519,13.5428276 128.298644,10.4440345 L69.104676,10.4440345 Z M53.8357734,108.865241 C49.3988102,106.217069 46.6919895,102.215793 44.3018287,97.9212414 C41.0399219,92.0603793 40.0480316,85.5617586 39.2029844,79.0879655 C37.7246176,67.761931 37.7090951,56.385931 39.492635,45.0906207 C40.2318184,40.4106207 41.2395418,35.6831379 42.8833789,31.2588621 C44.9956863,25.5745862 48.3752539,20.5615862 53.8016238,17.1152069 C53.3732016,16.6155517 53.0115264,16.1934828 52.5411934,15.6447931 C51.3760715,16.5506897 50.1938748,17.3141379 49.198259,18.2715517 C45.2670203,22.0512414 42.488175,26.6198276 40.8393707,31.7693793 C37.6668738,41.6771379 36.718757,51.9452069 36.6197232,62.28 C36.5470777,69.8958621 37.1726361,77.4803793 38.5423451,84.996931 C39.779802,91.7897586 41.6785193,98.3011034 45.8646381,103.938828 C47.7326207,106.454172 49.7511719,108.812793 52.7162877,110.236034 C53.1052826,109.759655 53.4324977,109.359 53.8357734,108.865241 L53.8357734,108.865241 Z M125.069024,106.360759 C123.968166,106.275724 123.407492,106.189138 122.84837,106.195966 C117.836141,106.259586 112.823292,106.309862 107.811995,106.423759 C103.5256,106.521207 99.1945008,106.352069 94.9661607,106.918448 C88.4389322,107.79269 81.9949045,109.271172 75.4875449,110.319517 C73.7940357,110.59231 73.195176,111.346448 73.1250141,113.011448 C74.9138318,113.011448 76.6827805,112.998414 78.4517293,113.01331 C91.9032529,113.126276 105.354156,113.258483 118.80599,113.324897 C119.602296,113.328931 120.72085,113.055828 121.14058,112.498448 C122.508426,110.68169 123.621392,108.672828 125.069024,106.360759 L125.069024,106.360759 Z M124.935531,19.6373793 C123.890864,17.8193793 122.951129,16.2822414 122.109807,14.6929655 C121.282145,13.1294483 120.019542,12.6058966 118.307406,12.6465517 C114.114767,12.7464828 109.919956,12.7657241 105.725765,12.7921034 C95.5504291,12.8566552 85.3747826,12.9028966 75.1994465,12.9702414 C74.4968963,12.9748966 73.794967,13.0897241 73.1451934,13.1483793 C73.1541965,14.8732759 73.968509,15.516 75.5254199,15.6987931 C77.5753266,15.939 79.5879793,16.4824138 81.6267098,16.8383793 C86.366052,17.666069 91.0864568,18.8968966 95.860259,19.1724828 C104.852157,19.6913793 113.876341,19.6556897 122.887486,19.836 C123.439468,19.8471724 123.994244,19.7326552 124.935531,19.6373793 L124.935531,19.6373793 Z M296.036774,50.3711379 C295.645296,44.1704483 295.459957,37.9455517 294.758959,31.7793103 C294.272793,27.4993448 293.200185,23.2677931 292.141548,19.0772069 C291.521578,16.6226897 289.846695,14.8956207 287.247912,14.2314828 C286.293896,13.9878621 285.755885,14.2342759 285.252334,15.0933103 C284.280623,16.7511724 283.330333,18.4658276 282.079837,19.9036552 C280.738068,21.4463793 280.288846,23.0567586 280.355593,25.047931 C280.67039,34.4389655 280.909437,43.8327931 281.134514,53.2266207 C281.204676,56.151 281.282289,66.8042069 281.232927,68.7637241 C280.960662,79.6068621 280.688707,90.4506207 280.356524,101.292207 C280.301575,103.082276 280.738689,104.528793 281.928958,105.909517 C283.083214,107.248345 284.009289,108.797897 284.93319,110.316724 C286.044915,112.144034 286.366852,112.310069 288.343493,111.387724 C288.944525,111.107172 289.507994,110.710862 290.022411,110.286931 C291.769007,108.847862 292.289323,106.771655 292.834785,104.716241 C295.29014,95.4636207 295.562095,85.9645862 296.010697,76.4866552 C296.493758,65.9485862 296.567956,61.6056207 296.036774,50.3711379 L296.036774,50.3711379 Z M86.8075131,99.6126207 C86.8075131,99.6126207 87.1074086,101.574931 87.2716371,102.648414 C94.7739916,100.819862 102.274794,101.450483 109.732443,101.445517 C165.711693,101.407034 221.690943,101.424414 277.670504,101.424414 L279.743074,101.424414 L279.743074,99.6126207 L279.762942,98.8383103 C280.811645,74.9315172 280.908506,51.1026207 279.730966,27.1564138 L279.765426,26.406 L279.765426,24.5433103 L277.583267,24.5433103 C217.360775,24.5433103 157.138284,24.5488966 96.9161023,24.5197241 C94.8562611,24.5187931 92.7945572,24.1888966 90.73751,23.9763103 C89.6043645,23.8593103 88.4789803,23.6672069 87.2374875,23.4931034 C87.0869189,24.5479655 86.8217939,26.406 86.8217939,26.406 C83.7660264,55.0545517 83.7141811,68.994 86.8075131,99.6126207 L86.8075131,99.6126207 Z M23.3526074,13.3066552 C19.8125367,13.2588621 16.4907129,13.9648966 13.9940674,16.4994828 C11.8479209,18.6784138 9.66048443,20.9634828 8.13151414,23.5759655 C3.7780623,31.013069 1.68965963,39.1981034 1.18859201,47.7788276 C0.617672951,57.5525172 0.658342008,67.3262069 1.11967193,77.1088966 C1.48538299,84.8637931 3.23291066,92.2543448 6.41254795,99.306931 C8.54813914,104.044034 11.5231893,108.145552 15.9868512,110.995138 C18.1789445,112.394793 20.6237447,112.729655 23.1768922,112.652069 C20.5271945,111.119586 18.3009516,109.220897 16.5084086,106.741862 C13.5911023,102.707069 11.9351576,98.0742414 9.97962787,93.5798276 C9.46210635,92.3902759 9.95323955,91.7844828 11.2133594,91.9222759 C9.27676721,90.4236207 7.37525594,88.9519655 5.47374467,87.4803103 C5.5411125,87.3968276 5.60848033,87.3130345 5.67584816,87.2292414 C7.65776619,88.6810345 9.63968422,90.1328276 11.6212918,91.5846207 C11.7246719,91.4756897 11.828052,91.3667586 11.9311217,91.2578276 C11.8876586,91.0924138 11.8994557,90.8553103 11.7923502,90.7727586 C10.6750377,89.91 9.61640041,88.9302414 8.38918832,88.2611379 C6.6016125,87.2866552 5.42841885,85.9931379 5.2185541,83.9271724 C4.90220471,80.8168966 4.54052951,77.7103448 4.27819857,74.5954138 C3.43315143,64.5703448 3.92801004,54.5623448 4.72338504,44.5596207 C4.99720266,41.1172759 6.14462889,38.2757586 9.72847316,37.0399655 C9.9516873,36.9626897 10.1801791,36.8373103 10.3487539,36.6746897 C10.9826945,36.0633103 11.5927303,35.4274138 12.2117693,34.8005172 C12.0652365,34.6378966 11.9183932,34.4755862 11.77155,34.3132759 C9.7256791,35.8116207 7.68011865,37.3099655 5.6345582,38.8083103 C5.56532766,38.7145862 5.49640758,38.6208621 5.42717705,38.5271379 C7.37090963,37.0461724 9.31464221,35.5648966 11.2344701,34.1022414 C10.8119465,34.0336552 10.3580674,33.9601034 9.65303361,33.8458966 C10.4875254,30.4373793 12.0646156,27.4648966 13.4734414,24.4505172 C15.6478389,19.7981379 18.5210613,15.6963103 23.3526074,13.3066552 L23.3526074,13.3066552 Z M287.629145,112.417759 C293.738197,112.387345 296.541878,111.874034 298.226694,104.764966 C298.780849,102.426828 299.222931,100.046793 299.495507,97.6608621 C300.119203,92.2046897 300.729239,86.742 301.117923,81.2659655 C301.571181,74.8747241 302.075974,68.4636207 302.021024,62.0658621 C301.961728,55.1358621 301.33617,48.2071034 300.859317,41.2845517 C300.385259,34.4085517 299.693885,27.5458966 298.096305,20.8272414 C296.496552,14.0989655 293.546027,13.5763448 287.659569,13.6297241 C291.231617,14.8788621 292.559104,17.6077241 293.3551,20.7654828 C295.010734,27.3308276 295.932152,34.0004483 296.19883,40.7591379 C296.51611,48.7998621 296.992342,56.8424483 297.010969,64.8850345 C297.026802,71.721931 296.510212,78.5613103 296.193242,85.3975862 C295.889,91.9561034 295.039917,98.4351724 293.448546,104.821448 C292.62523,108.124759 291.391499,111.015931 287.629145,112.417759 L287.629145,112.417759 Z M279.716375,102.037966 L277.755878,102.037966 C217.765603,102.037966 157.775329,102.029897 97.7850541,102.065586 C95.2443246,102.067138 92.6753441,102.303 90.1684537,102.721655 C78.5790141,104.658207 67.0044762,106.68569 55.4333533,108.730862 C54.702552,108.860276 54.0468799,109.415172 53.0761002,109.91669 C55.5836115,111.687828 57.9178912,112.404724 60.4226084,112.030138 C66.2808154,111.154034 72.1247416,110.176138 77.957802,109.144862 C82.6912457,108.307862 87.3672559,107.038862 92.1295715,106.498552 C97.4320715,105.897103 102.801008,105.800897 108.145419,105.671172 C114.752744,105.511345 121.365036,105.564103 127.974534,105.473172 C129.168838,105.456414 129.628616,105.806172 129.497605,107.046931 C129.199573,109.869207 128.993123,112.701414 128.737001,115.67731 C129.276875,115.67731 129.749691,115.67669 130.222508,115.677621 C137.07571,115.687862 143.928601,115.689414 150.781803,115.710828 C180.5975,115.803621 210.413197,115.906655 240.228893,115.994793 C245.97006,116.011552 251.714021,116.076414 257.451773,115.932414 C261.340791,115.834655 265.312078,115.827207 269.080019,115.011 C272.643374,114.238862 276.171647,113.820828 279.779396,113.627793 C282.060899,113.505517 284.329674,113.140862 286.604037,112.884828 C285.087174,112.30169 279.897989,104.415517 279.716375,102.037966 L279.716375,102.037966 Z M53.0916227,16.1193103 C54.0254588,16.6018966 54.6550531,17.1332069 55.3569824,17.2588966 C64.600966,18.9114828 73.8477436,20.5519655 83.1103543,22.0968621 C87.4302775,22.8174828 91.7846607,23.8434828 96.1247631,23.8518621 C156.798961,23.967 217.473159,23.9297586 278.147356,23.9297586 L279.679742,23.9297586 C279.915684,21.8172414 285.05675,13.8010345 286.412799,13.1629655 C283.517224,12.7756552 280.600539,12.5941034 277.700928,12.266069 C275.179447,11.9805517 272.673798,11.5476207 270.166908,11.1441724 C268.601304,10.8918621 267.048119,10.3354138 265.486551,10.323 C255.895794,10.2475862 246.304416,10.2885517 236.713038,10.2901034 C231.936441,10.2907241 227.159845,10.2904138 222.383559,10.2904138 L130.28584,10.2904138 L128.72241,10.2904138 C128.984741,13.2448966 129.174116,15.9867931 129.492638,18.7137931 C129.656867,20.1202759 129.222546,20.5426552 127.794783,20.5181379 C118.918994,20.3645172 110.040411,20.367 101.166174,20.1621724 C97.6608738,20.0811724 94.1257703,19.835069 90.6726258,19.2572069 C81.126884,17.6601724 71.6239844,15.8111379 62.0897293,14.1433448 C59.0864281,13.6182414 56.1352826,13.841069 53.0916227,16.1193103 L53.0916227,16.1193103 Z M86.5818154,102.663 C84.6399455,89.4298966 83.6492969,76.2852414 83.6465029,63.063 C83.6433984,49.7932759 84.6418082,36.6026897 86.5687764,23.4198621 C86.1307303,23.3078276 85.7234189,23.1737586 85.305552,23.1014483 C75.6238328,21.4293103 65.9300059,19.8251379 56.268466,18.044069 C54.4160059,17.7023793 53.1322918,18.1921034 51.8197057,19.3031379 C48.3196832,22.2656897 45.941009,26.0428966 43.9994496,30.1084138 C41.3882477,35.5754483 40.4854568,41.5157586 39.7574496,47.4287586 C38.331549,59.0077241 38.3796689,70.6077931 40.291425,82.1448621 C41.1482693,87.3145862 42.0417467,92.5026207 44.6237662,97.1891379 C46.7751904,101.094207 49.08184,104.895931 52.8923133,107.432379 C53.6032457,107.905655 54.7100029,108.137172 55.5556709,107.99969 C63.1595428,106.762966 70.7460295,105.420414 78.337173,104.105793 C81.0750387,103.631586 83.8110418,103.148069 86.5818154,102.663 L86.5818154,102.663 Z M12.4517477,90.7131724 C12.4871391,90.8959655 12.481551,91.1001724 12.5641309,91.2581379 C13.785134,93.5891379 16.1392826,94.1648276 18.355591,94.5114828 C24.3507068,95.4490345 30.3892857,96.1116207 36.4098584,96.8884138 C37.7671494,97.0637586 39.1213359,97.2602069 40.4770746,97.4470345 C40.4593789,97.5624828 40.4413727,97.677931 40.4233666,97.7933793 C39.4764916,97.6720345 38.5268225,97.5702414 37.5833625,97.4265517 C29.8133994,96.2425862 21.8652375,96.1736897 14.1930664,93.7675862 C14.2548461,94.0493793 14.2924107,94.3674828 14.3939281,94.6635517 C16.0241053,99.4164828 18.8389629,103.506207 21.7522334,107.515241 C23.9412221,110.527138 27.0444885,112.03231 30.7562385,112.276862 C32.9200807,112.41931 35.0826811,112.624138 37.2493174,112.683414 C40.6167775,112.775586 43.9885838,112.848517 47.354802,112.768448 C49.1116432,112.726552 50.8107406,112.227207 52.1025264,110.867276 C45.300549,106.122724 41.5496822,99.4801034 39.4491719,91.8133448 C37.1977826,83.5957241 36.295923,75.1661379 36.0512877,66.6716897 C35.7579117,56.4691034 36.5669465,46.3518621 38.8884977,36.3938276 C40.8663799,27.9105517 44.5085889,20.4231724 51.9715162,15.3235862 C52.0258451,15.2863448 52.0143584,15.1525862 52.0401258,15.0340345 C50.5766607,13.698 48.7599025,13.1558276 46.8618061,13.1918276 C41.7123584,13.2892759 36.5666361,13.5763448 31.4174988,13.7017241 C26.9125469,13.8115862 23.4485367,15.7661379 21.0111873,19.4719655 C19.1081238,22.3653103 17.3149598,25.3362414 15.5997191,28.3447241 C14.8996525,29.573069 14.5339414,30.9922759 14.0285275,32.2913793 C22.7767211,29.5789655 31.719257,29.7040345 40.4314383,28.2987931 C40.1126053,28.5638276 39.767384,28.7202414 39.4085029,28.764931 C35.2959609,29.2748276 31.1772098,29.736931 27.0683932,30.2753793 C23.8229404,30.7005517 20.5486156,31.0357241 17.3643215,31.752931 C15.3106893,32.2156552 13.0589895,32.8391379 12.3471258,35.2992414 C13.9195592,34.784069 15.4683984,34.0274483 17.0936084,33.7878621 C23.0021084,32.9170345 28.9354445,32.2137931 34.8607088,31.4596552 C36.2158266,31.2874138 37.5774639,31.1645172 38.9359967,31.0189655 C37.3058195,31.571069 35.6355941,31.7097931 33.9920674,32.0002759 C26.8647375,33.2596552 19.425715,32.7674483 12.6181494,35.7855517 C12.2192201,35.9624483 11.7535439,36.4562069 11.6930059,36.8587241 C10.8690695,42.3338276 10.0314732,47.8092414 9.37052336,53.3051379 C9.03399467,56.1004138 8.65400287,58.9065517 9.41678053,61.7632759 C9.7439957,62.9888276 9.30688094,64.422 9.1972918,65.7589655 C9.14296291,66.4212414 8.92036967,67.0922069 8.9858748,67.7377241 C9.49159918,72.72 9.97900697,77.7063103 10.619467,82.6724483 C10.9559957,85.2836897 11.5877631,87.857069 12.0863471,90.4475172 C12.2080439,90.5359655 12.330051,90.6247241 12.4517477,90.7131724 L12.4517477,90.7131724 Z M69.5203697,116.256414 C70.143134,119.43931 70.7401309,122.492172 71.3352652,125.536034 C69.4185418,125.986655 68.3651822,125.653034 67.8082334,124.050103 C66.949216,121.577586 66.3478727,119.016 65.5720561,116.261069 C64.2613328,116.261069 62.5752744,116.144379 60.9097057,116.28031 C51.2748645,117.066724 41.6446801,116.617345 32.0169793,116.199931 C29.7140551,116.1 27.4400029,115.737207 25.3984783,114.405517 C24.5500162,113.852172 23.4237006,113.501172 22.4091473,113.464241 C17.3835695,113.282069 13.693551,110.739103 10.5573768,107.093172 C6.49357561,102.368793 4.40113709,96.6901034 2.65143627,90.8456897 C0.680073566,84.2620345 0.283317418,77.471069 0.268415779,70.6711034 C0.251340984,62.7712759 0.314983402,54.8627586 0.674485451,46.9731724 C1.06813709,38.3291379 3.45550389,30.1555862 7.88129078,22.6930345 C9.18922008,20.4880345 11.017465,18.5521034 12.800384,16.6766897 C15.3373881,14.0080345 18.5896709,12.8116552 22.2564055,12.5717586 C23.2808932,12.5047241 24.4193164,12.2297586 25.2593963,11.6767241 C27.5135797,10.1932759 30.0384762,9.92917241 32.580758,9.76158621 C35.6104475,9.56234483 38.650382,9.46458621 41.6869014,9.43727586 C47.1856064,9.38762069 52.6852426,9.38141379 58.1836371,9.441 C60.7653461,9.46893103 63.3445715,9.69237931 65.5658471,9.80844828 C66.3258307,7.04793103 66.8747078,4.5692069 67.7076473,2.1897931 C68.3366207,0.392586207 69.1313748,0.117931034 71.348925,0.411517241 C70.7500654,3.45817241 70.152758,6.49489655 69.5203697,9.71131034 L71.4200182,9.71131034 C117.800439,9.71131034 164.18055,9.71006897 210.560971,9.71286207 C217.269192,9.71317241 223.978035,9.78703448 230.685635,9.7262069 C236.178752,9.67655172 241.670627,9.37117241 247.162812,9.37241379 C253.431125,9.37365517 259.704715,9.47606897 265.964335,9.77275862 C268.136559,9.8757931 270.252902,10.8661034 272.433819,11.1398276 C275.871441,11.5708966 279.348491,11.6779655 282.796978,12.0357931 C286.003004,12.3684828 289.20282,12.7902414 292.388667,13.2812069 C296.169026,13.8637241 297.767538,16.7052414 298.539008,19.9613793 C299.425656,23.7028966 300.183776,27.5145517 300.525272,31.3376897 C301.378702,40.8866897 302.296705,50.4502759 302.551585,60.0250345 C302.750894,67.5173793 302.103915,75.0423103 301.626752,82.5393103 C301.296432,87.7282759 300.679256,92.9026552 300.06239,98.0680345 C299.76591,100.549241 299.243421,103.010897 298.699822,105.453621 C297.519487,110.757103 295.108526,112.638414 289.699542,113.067931 C284.039713,113.517621 278.388577,114.117207 272.752963,114.809276 C270.238001,115.118379 267.791648,116.064621 265.276686,116.275966 C261.487634,116.594069 257.665984,116.575759 253.857684,116.601207 C248.845456,116.635034 243.832606,116.591276 238.820067,116.547517 C232.69984,116.494448 226.579923,116.350448 220.459695,116.343931 C197.390406,116.319103 174.320805,116.343931 151.251205,116.331207 C124.515491,116.316621 97.779466,116.282172 71.0437518,116.256414 C70.5672098,116.256103 70.0903574,116.256414 69.5203697,116.256414 L69.5203697,116.256414 Z" id="Fill-1" fill-opacity="0.400000006" fill="#F9F8F5"></path>
                <path d="M12.0864403,90.4473621 C12.3478399,90.4005 12.6806431,90.2260862 12.8603942,90.3260172 C16.4858388,92.3407759 20.55647,92.2818103 24.489261,92.8221207 C29.1134259,93.4577069 33.7515612,93.9902586 38.3828665,94.5733966 C38.5967671,94.6000862 38.8038378,94.6817069 38.9658931,95.0265 C37.5874915,94.8623276 36.2078481,94.7087069 34.8309987,94.532431 C28.8641339,93.7689828 22.8891974,93.0604655 16.9381657,92.1887069 C15.4036073,91.9640172 13.9451093,91.2191897 12.4518409,90.7133276 C12.3298337,90.624569 12.208137,90.5361207 12.0864403,90.4473621" id="Fill-3" fill-opacity="0.400000006" fill="#F9F8F5"></path>
                <path d="M204.497618,19.8446897 L204.497618,19.9458621 C208.212162,19.9458621 211.926706,19.9498966 215.64125,19.9452414 C231.901733,19.9238276 248.162216,19.899 264.422698,19.8778966 C265.724108,19.8760345 267.029554,19.9613793 268.325065,19.8806897 C269.706571,19.7947241 271.526123,20.0299655 272.333916,19.2624828 C273.21777,18.4226897 273.129912,16.586069 273.526979,15.2013103 C273.859472,14.0415517 273.324875,13.5443793 272.276793,13.4581034 C270.40819,13.3044828 268.53493,13.1080345 266.663222,13.0999655 C250.982972,13.0323103 235.303032,12.9938276 219.622782,12.9643448 C197.378981,12.923069 175.13518,12.8954483 152.891068,12.8653448 C147.679841,12.8582069 142.467992,12.8954483 137.257075,12.843 C135.922137,12.8296552 135.378848,13.2933103 135.55239,14.6222069 C135.664152,15.4806207 135.706684,16.3483448 135.781813,17.2117241 C136.005648,19.7888276 136.063702,19.8443793 138.63082,19.8443793 C160.586523,19.845 182.542226,19.8446897 204.497618,19.8446897 M223.755193,20.3226207 C208.312127,20.3226207 192.869062,20.3381379 177.425996,20.3176552 C164.349187,20.3002759 151.272377,20.241 138.195568,20.2003448 C135.878984,20.1932069 135.567602,19.9132759 135.360531,17.5804138 C135.262429,16.4765172 135.182022,15.3704483 135.117759,14.264069 C135.04977,13.0881724 135.595542,12.4243448 136.802265,12.4277586 C142.591862,12.4435862 148.381459,12.4718276 154.171057,12.4985172 C154.556326,12.5003793 154.941285,12.5376207 155.326555,12.5385517 C164.4476,12.563069 173.568334,12.5981379 182.68938,12.6040345 C210.585248,12.6217241 238.481428,12.6223448 266.377297,12.6505862 C268.203989,12.6524483 270.035649,12.7725517 271.855201,12.9423103 C273.863818,13.1294483 274.282927,13.7594483 273.852021,15.6991034 C273.622908,16.731 273.325807,17.748 273.1147,18.7833103 C272.884346,19.9126552 272.276483,20.3527241 271.092424,20.3434138 C265.303137,20.2971724 259.513229,20.3226207 253.723632,20.3226207 L223.755193,20.3226207" id="Fill-5" fill-opacity="0.400000006" fill="#F9F8F5"></path>
                <path d="M221.342462,112.883307 L221.342462,112.8141 L251.741807,112.8141 C257.387976,112.8141 263.034145,112.833652 268.680003,112.798893 C269.927705,112.791134 271.182547,112.647134 272.418763,112.464341 C273.620828,112.286824 274.22807,111.55379 273.878502,110.310238 C273.6081,109.34941 273.123796,108.441031 272.921693,107.470272 C272.675816,106.290341 272.071368,105.996134 270.911213,105.996134 C257.546616,105.995824 244.182019,105.923514 230.817111,105.907686 C225.125306,105.900859 219.4335,105.998307 213.741695,106.018169 C203.36767,106.054479 192.993646,106.076514 182.619311,106.089238 C167.804598,106.107548 152.989885,106.112203 138.175171,106.123376 C136.327058,106.124617 136.152274,106.264893 135.931233,108.121066 C135.834683,108.933548 135.831268,109.756893 135.761416,110.57341 C135.556208,112.973307 135.643135,113.072928 138.109356,113.10179 C138.736777,113.109238 139.364198,113.106134 139.991309,113.10241 C151.859223,113.02979 163.726826,112.920859 175.59443,112.892307 C190.843774,112.855376 206.093118,112.883307 221.342462,112.883307 L221.342462,112.883307 Z M205.253038,113.361238 C189.616562,113.361238 173.980085,113.343548 158.343609,113.369928 C151.928453,113.380479 145.513608,113.500583 139.098452,113.544341 C135.139583,113.571341 134.946793,113.335169 135.423025,109.471997 C135.879388,105.76741 135.879388,105.775479 139.635222,105.765859 C154.159663,105.728617 168.683794,105.666859 183.208236,105.648859 C212.501444,105.612548 241.794962,105.604479 271.08817,105.556376 C272.285269,105.554203 272.98161,105.865169 273.249219,107.113686 C273.507824,108.321238 274.021931,109.473548 274.29016,110.679859 C274.544419,111.822238 273.915136,112.569859 272.820486,112.774686 C271.546706,113.013341 270.245296,113.106134 268.955373,113.257272 C268.812566,113.274031 268.666033,113.260066 268.521363,113.260066 L205.253038,113.260066 L205.253038,113.361238 Z" id="Fill-7" fill-opacity="0.400000006" fill="#F9F8F5"></path>
                <path d="M288.821742,107.559434 C288.825778,107.559434 288.840059,107.562228 288.854029,107.562228 C289.461581,107.562228 290.395728,104.556228 290.887792,101.749159 C291.989272,95.1934345 293.786161,68.8578828 293.786161,63.0879517 L293.786161,63.015331 C293.786161,57.2450897 291.989272,30.9098483 290.887482,24.3522621 C290.395417,21.5467448 289.46096,18.5410552 288.854029,18.5410552 C288.836954,18.5410552 288.818948,18.5450897 288.800011,18.5531586 C286.484979,19.7842966 284.202855,23.1270207 284.202855,24.3637448 C284.202855,25.7078483 284.981155,61.0995724 285.023376,63.015331 L285.024929,63.015331 L285.023376,63.0879517 C284.981155,65.0037103 284.202855,100.395124 284.202855,101.739538 C284.202855,102.975952 286.484979,106.318986 288.8205,107.559745 C288.8205,107.559434 288.820811,107.559434 288.821742,107.559434 M288.854029,108.089503 C288.765861,108.089503 288.678314,108.071503 288.593871,108.035503 C286.208367,106.769297 283.675399,103.261159 283.675399,101.739538 C283.675399,100.383331 284.460839,64.6570552 284.496231,63.0516414 C284.460839,61.4462276 283.675399,25.7199517 283.675399,24.3637448 C283.675399,22.8418138 286.208367,19.3336759 288.572761,18.0774 C288.678314,18.031469 288.765861,18.013469 288.854029,18.013469 C290.207284,18.013469 291.150744,22.7968138 291.407487,24.2631931 C292.512692,30.8387793 294.313617,57.2332966 294.313617,63.015331 L294.313617,63.0879517 C294.313617,68.8696759 292.512692,95.2645034 291.407797,101.838228 C291.150744,103.306159 290.207595,108.089503 288.854029,108.089503" id="Fill-9" fill-opacity="0.400000006" fill="#F9F8F5"></path>
                <path d="M9.23467008,63.3183828 C9.23467008,65.0854862 8.38651844,66.5177276 7.33998873,66.5177276 C6.29376947,66.5177276 5.44561783,65.0854862 5.44561783,63.3183828 C5.44561783,61.5512793 6.29376947,60.1190379 7.33998873,60.1190379 C8.38651844,60.1190379 9.23467008,61.5512793 9.23467008,63.3183828" id="Fill-11" fill-opacity="0.400000006" fill="#F9F8F5"></path>
                <mask id="mask-2" fill="white">
                    <use xlink:href="#path-1"></use>
                </mask>
                <g id="Clip-15"></g>
                <path d="M187.341609,115.602952 L208.019186,115.645469 L223.595125,115.697917 L239.702865,115.793814 C239.844741,115.794434 253.946659,115.857745 255.293395,115.857745 C255.483081,115.854952 263.231312,115.746641 265.374665,115.479124 C267.534471,115.209124 271.615657,114.244262 271.656947,114.234641 L271.697616,114.226883 C271.754118,114.218814 277.413637,113.403848 280.561608,113.266676 C280.589238,113.263262 285.799224,112.756779 287.433437,112.5684 C287.658824,112.542331 287.95872,112.524331 288.305493,112.503848 C290.583582,112.367917 295.323234,112.085503 296.786078,108.541055 C296.8075,108.494503 298.171931,105.490986 298.77048,101.3454 C299.378343,97.1312276 299.965716,92.0837793 299.971614,92.0331931 L300.740601,84.1395724 L301.238254,76.3381241 L301.681267,67.7201586 C301.764778,66.0911586 301.839286,62.9939172 301.812277,60.4633655 C301.786199,57.9759517 301.40124,51.7181586 301.397515,51.6551586 L301.116247,47.6371241 L300.690618,42.2970207 L300.477339,39.2640207 L300.121252,35.0644345 L299.801177,31.6102966 L299.304145,27.8495379 L298.843436,25.1948483 L297.812739,20.4440897 L297.462551,19.1816069 C296.265452,14.2738138 292.337008,13.9346069 290.659642,13.7899862 C290.490446,13.7754 290.343293,13.7626759 290.222527,13.7477793 C288.857785,13.5817448 282.196753,12.7580897 282.196753,12.7580897 C282.183093,12.7577793 278.393109,12.487469 274.895881,12.1342966 C271.368228,11.778331 269.1038,11.1818483 269.009423,11.1567103 L268.974963,11.1461586 C268.958198,11.1402621 267.276797,10.5627103 264.945622,10.5627103 L264.642001,10.5636414 C263.050319,10.5636414 259.408421,10.4702276 256.194944,10.3876759 C253.778085,10.3256069 251.690303,10.2722276 251.007622,10.2722276 C250.633218,10.2722276 250.247327,10.2685034 249.834117,10.2647793 C249.36099,10.2604345 248.852161,10.2557793 248.282795,10.2557793 C246.908118,10.2557793 245.579389,10.284331 244.101643,10.3457793 C240.707484,10.4872966 226.785938,10.5189517 226.645614,10.5192621 L142.054285,10.4699172 C142.054596,10.4699172 111.406581,10.4081586 90.4173111,10.4081586 C78.2293223,10.4081586 71.7679094,10.329331 71.211892,10.329331 L71.1746379,10.329331 C70.2792977,10.329331 70.1377322,10.6918138 69.9235211,11.1343655 C69.7068264,11.5812621 69.4106564,12.228331 68.3613326,12.228331 C68.2014504,12.228331 68.0238725,12.2314345 67.8329453,12.2028828 C67.304558,12.1231241 66.7715139,11.7355034 66.2071143,11.3159172 C65.7125662,10.9481586 65.1522025,10.5357103 64.7498582,10.4910207 C62.7297547,10.2666414 58.9009648,10.1890552 57.0609227,10.1505724 L56.5520939,10.1406414 C56.0820713,10.1300897 54.4301625,10.1254345 51.6420037,10.1254345 C46.8340518,10.1254345 40.3356953,10.1415724 40.3356953,10.1415724 C40.2705006,10.1418828 33.7979115,10.1595724 30.2131359,10.7768483 C27.8186287,11.1889862 26.9133541,11.7786414 26.1145641,12.2990897 C25.7022855,12.5675379 25.3126697,12.8210897 24.7768316,13.0330552 C23.9982209,13.3406069 23.2733182,13.3688483 22.4335488,13.4011241 C21.4621482,13.4386759 20.3609791,13.4811931 18.7401154,13.9395724 C16.2748254,14.6366069 14.9280898,15.8022621 14.1234012,16.4989862 C13.9424084,16.6557103 13.7868725,16.7897793 13.6518264,16.8928138 C13.1563469,17.2701931 11.5854658,19.0674 9.44956414,21.7009862 C8.50362049,22.8672621 6.66295758,26.6922621 5.67417172,28.7473655 L5.40190635,29.3125034 C4.44106107,31.3018138 1.63272295,38.9828483 1.33872602,47.8819862 C1.04566045,56.7432621 0.932345902,62.9728138 0.931104098,63.0348828 C0.932656352,63.1171241 1.05404262,72.7188828 1.21082029,76.0097793 C1.36169939,79.1725034 1.5175457,82.4432276 2.15303852,85.1969172 C2.34893299,86.0447793 2.51254057,86.8181586 2.67087049,87.5660897 C3.02478443,89.2376069 3.33057848,90.6810207 3.83692377,92.1998483 C4.52302008,94.2574345 6.3093541,99.1487793 7.45181311,101.137469 C8.55391352,103.054469 9.34990943,104.439848 10.8509391,106.279262 C12.2175436,107.952952 13.6654863,109.321572 14.9280898,110.132814 C16.1301553,110.905262 17.5725098,111.752503 19.1533254,112.177676 C19.9254166,112.385607 20.8949545,112.452952 21.832516,112.518434 C22.8740785,112.590745 23.773765,112.653124 24.3716932,112.897055 C24.7845928,113.065572 25.1984238,113.329676 25.6364699,113.609297 C26.4011102,114.097159 27.2675785,114.650503 28.4755426,114.958986 C30.3981645,115.449641 34.0295078,115.540262 34.066141,115.540883 L39.6772291,115.6914 L46.8750314,115.793814 L56.0209125,115.687676 L61.9840518,115.518228 L64.9209166,115.413331 C65.3397148,115.398434 65.5595139,115.230848 65.9233623,114.9534 C66.2543029,114.7014 66.6659607,114.387641 67.3334299,114.126952 C67.9540211,113.884883 68.3340129,113.786193 68.6444637,113.786193 C69.0868561,113.786193 69.4100355,113.995986 69.5792311,114.393538 C69.6515662,114.562986 69.6636738,114.7284 69.6742291,114.873952 C69.694098,115.149228 69.7099309,115.366159 70.943973,115.369262 C73.0451041,115.374228 127.236778,115.453366 127.784103,115.454297 L142.47029,115.58371 L165.267935,115.6914 L187.341609,115.602952 Z M255.299604,116.777607 L255.29681,116.777607 C253.968391,116.777607 239.840395,116.719883 239.697898,116.719262 L223.591089,116.626159 L208.017013,116.574952 L187.342541,116.533366 L165.267625,116.622124 L142.46377,116.514434 L127.779136,116.385021 C127.235536,116.38409 73.0435518,116.305262 70.9421102,116.300297 C69.2001707,116.295952 68.8040355,115.753779 68.7453602,114.941297 C68.7407035,114.879228 68.7338736,114.785503 68.7223869,114.757883 C68.7130734,114.735848 68.7056225,114.724676 68.7022076,114.720021 C68.6987926,114.71909 68.6807865,114.717228 68.6444637,114.717228 C68.4100734,114.717228 67.9773049,114.875193 67.6724422,114.994366 C67.1266697,115.207572 66.8019381,115.454607 66.4877619,115.694193 C66.0664801,116.01509 65.6687926,116.318297 64.9541348,116.343745 L62.0138551,116.448641 L56.0395395,116.6184 L46.8737895,116.724848 L39.6579811,116.622434 L34.0425467,116.471917 C33.8910467,116.468193 30.2708797,116.377883 28.2451881,115.860848 C26.8922434,115.515745 25.9180488,114.893814 25.1354023,114.394159 C24.7162936,114.126641 24.3546184,113.895745 24.019642,113.759193 C23.5601748,113.571745 22.6896707,113.511228 21.7679422,113.446986 C20.7859863,113.37871 19.7705016,113.307641 18.9111738,113.076434 C17.2074197,112.618366 15.687142,111.727366 14.4245385,110.915814 C13.0818387,110.053055 11.5562834,108.615228 10.1294514,106.867986 C8.58030184,104.969607 7.7681625,103.556917 6.64433053,101.601124 C5.50870143,99.6251586 3.77762766,94.9665724 2.95338074,92.4943655 C2.43027111,90.9252621 2.11950984,89.4579517 1.75969734,87.7588138 C1.60229877,87.0149172 1.43962254,86.2455724 1.24590123,85.4064 C0.591160451,82.5710897 0.433140984,79.2581586 0.280709631,76.0538483 C0.123000615,72.7468138 0.00130389344,63.1289172 6.20901639e-05,63.0320897 C0.00130389344,62.9560552 0.114618443,56.7199862 0.407994467,47.8512621 C0.707269057,38.7913655 3.58018094,30.9430552 4.56306824,28.9078138 L4.8347127,28.3439172 C5.91073525,26.1078828 7.71135,22.3651241 8.72621373,21.1144345 C10.0263818,19.5115034 12.3215447,16.7351586 13.0874268,16.1520207 C13.2097445,16.0589172 13.3500682,15.9369517 13.5139863,15.7951241 C14.3770395,15.0478138 15.8215672,13.7971241 18.486477,13.0436069 C20.2141359,12.5551241 21.4248941,12.5082621 22.3975365,12.4710207 C23.1832875,12.4402966 23.8035682,12.4164 24.4344043,12.1671931 C24.8833162,11.9899862 25.2182926,11.7718138 25.6063561,11.5188828 C26.4802752,10.9497103 27.4712342,10.3041931 30.0548059,9.85946897 C33.7178152,9.22884828 40.0652926,9.21146897 40.3338326,9.21084828 C40.3335221,9.21084828 46.8331205,9.19502069 51.6420037,9.19502069 C54.4369924,9.19502069 56.0960416,9.20029655 56.5725836,9.21115862 L57.0804811,9.22171034 C58.9338725,9.26050345 62.7909135,9.3411931 64.8526174,9.57022759 C65.5058059,9.64284828 66.1447137,10.1179862 66.7631318,10.5776069 C67.1900016,10.8950897 67.673684,11.2547793 67.9714064,11.2997793 C68.1166973,11.3215034 68.248018,11.3326759 68.3613326,11.3326759 C68.8266984,11.3326759 68.8971707,11.1169862 69.0853039,10.7287448 C69.3280764,10.2269172 69.6953398,9.39829655 71.1746379,9.39829655 L71.2212055,9.39829655 C71.7741184,9.39829655 78.2324268,9.47712414 90.4173111,9.47712414 C111.406581,9.47712414 142.054596,9.50381379 142.054596,9.50381379 L226.644993,9.57084828 C226.783765,9.57053793 240.686994,9.54757241 244.062837,9.40698621 C245.553932,9.34491724 246.894769,9.3204 248.282795,9.3204 C248.855266,9.3204 249.366889,9.32722759 249.8425,9.33157241 C250.252916,9.33529655 250.636012,9.33995172 251.007622,9.33995172 C251.7021,9.33995172 253.79547,9.39426207 256.218849,9.45633103 C259.426427,9.53857241 263.062116,9.63229655 264.642001,9.63229655 L264.945622,9.63136552 C267.334541,9.63136552 269.051644,10.1887448 269.263992,10.2607448 C269.467027,10.3135034 271.688924,10.8746069 274.989326,11.2082276 C278.473206,11.5598483 282.249219,11.8289172 282.287094,11.8317103 C282.311309,11.8338828 288.970479,12.6575379 290.335221,12.8235724 C290.446673,12.8372276 290.582961,12.8490207 290.739738,12.8623655 C292.454979,13.0104 297.012087,13.4036069 298.363479,18.9472966 L298.716462,20.2215724 L299.757093,25.0164 L300.224321,27.7089517 L300.726631,31.506331 L301.049189,34.9821931 L301.405897,39.1920207 L301.619487,42.2271931 L302.045115,47.5676069 L302.326694,51.594331 C302.331041,51.6610552 302.716931,57.9427448 302.74363,60.4531241 C302.770949,63.0029172 302.69551,66.1246759 302.611378,67.7679517 L302.168054,76.3918138 L301.669159,84.2143655 L300.897689,92.1318828 C300.890859,92.1911586 300.301934,97.251331 299.692209,101.477917 C299.07317,105.765331 297.697873,108.786848 297.639508,108.913159 C295.961521,112.980228 290.827906,113.286228 288.361064,113.433331 C288.02764,113.452883 287.740162,113.470262 287.540232,113.493228 C285.897637,113.682848 280.67958,114.189952 280.627113,114.195228 C277.596182,114.327745 272.226935,115.091814 271.85129,115.145193 C271.498928,115.228676 267.643129,116.128366 265.490152,116.397124 C263.280053,116.673331 255.627751,116.777607 255.303019,116.777607 L255.299604,116.777607 Z" id="Fill-14" fill-opacity="0.400000006" fill="#F9F8F5" mask="url(#mask-2)"></path>
            </g>
        </g>
    </g>
</svg>