<?xml version="1.0" encoding="UTF-8" standalone="no"?>
<svg width="164px" height="164px" viewBox="0 0 164 164" version="1.1" xmlns="http://www.w3.org/2000/svg" xmlns:xlink="http://www.w3.org/1999/xlink">
    <!-- Generator: Sketch 3.6.1 (26313) - http://www.bohemiancoding.com/sketch -->
    <title>Placeholder Image</title>
    <desc>Created with Sketch.</desc>
    <defs></defs>
    <g id="Music" stroke="none" stroke-width="1" fill="none" fill-rule="evenodd">
        <g id="Petron-Music" transform="translate(-536.000000, -161.000000)">
            <g id="Placeholder-Image" transform="translate(536.000000, 161.000000)">
                <rect id="Rectangle-14" fill="#242627" x="0" y="0" width="164" height="164"></rect>
                <path d="M112.010267,47.6330456 C111.57225,47.2433809 111.015519,47.0629046 110.397384,47.1367358 L65.367656,52.2639031 C64.3483467,52.3910568 63.5787477,53.2647262 63.5787477,54.2983631 L63.5787477,96.6118496 C56.8079141,96.6118496 51.2979129,101.213995 51.2979129,106.866184 C51.2979129,112.518373 56.8079141,117.120519 63.5787477,117.120519 C70.3495813,117.120519 75.8595826,112.518373 75.8595826,106.866184 L75.8595826,75.6560913 L100.421252,73.0925076 L100.421252,88.4083819 C93.6504187,88.4083819 88.1404174,93.0105273 88.1404174,98.6627165 C88.1404174,104.314906 93.6504187,108.917051 100.421252,108.917051 C107.192086,108.917051 112.702087,104.314906 112.702087,98.6627165 L112.702087,49.1711958 C112.702087,48.5805461 112.448283,48.0227103 112.010267,47.6330456 L112.010267,47.6330456 Z" id="Shape" fill="#FFFFFF" style="mix-blend-mode: overlay;"></path>
            </g>
        </g>
    </g>
</svg>